<svg width="18" height="21" viewBox="0 0 18 21" fill="none" xmlns="http://www.w3.org/2000/svg">
<path d="M9 2.84227L4.4625 7.37977C3.56518 8.27719 2.95412 9.42053 2.70658 10.6652C2.45905 11.9099 2.58616 13.2001 3.07184 14.3725C3.55752 15.545 4.37996 16.5471 5.43516 17.2521C6.49036 17.9572 7.73093 18.3335 9 18.3335C10.2691 18.3335 11.5096 17.9572 12.5648 17.2521C13.62 16.5471 14.4425 15.545 14.9282 14.3725C15.4138 13.2001 15.541 11.9099 15.2934 10.6652C15.0459 9.42053 14.4348 8.27719 13.5375 7.37977L9 2.84227ZM9 0.249939L14.8337 6.08361C15.9874 7.23739 16.7732 8.7074 17.0915 10.3077C17.4098 11.9081 17.2464 13.5669 16.622 15.0744C15.9976 16.5819 14.9401 17.8703 13.5834 18.7768C12.2267 19.6834 10.6317 20.1672 9 20.1672C7.36831 20.1672 5.77326 19.6834 4.41656 18.7768C3.05986 17.8703 2.00243 16.5819 1.37801 15.0744C0.753581 13.5669 0.590198 11.9081 0.908518 10.3077C1.22684 8.7074 2.01256 7.23739 3.16634 6.08361L9 0.249939Z" fill="white"/>
</svg>
