<svg width="27" height="33" viewBox="0 0 27 33" fill="none" xmlns="http://www.w3.org/2000/svg">
<path d="M13.5 32.6032L4.21917 23.3223C2.38362 21.4868 1.13361 19.1481 0.627187 16.6021C0.120769 14.0561 0.380697 11.4171 1.3741 9.01887C2.36751 6.6206 4.04977 4.57076 6.20816 3.12858C8.36655 1.68639 10.9041 0.916626 13.5 0.916626C16.0959 0.916626 18.6335 1.68639 20.7918 3.12858C22.9502 4.57076 24.6325 6.6206 25.6259 9.01887C26.6193 11.4171 26.8792 14.0561 26.3728 16.6021C25.8664 19.1481 24.6164 21.4868 22.7808 23.3223L13.5 32.6032ZM20.7188 21.2603C22.1463 19.8326 23.1185 18.0136 23.5123 16.0334C23.9061 14.0532 23.7038 12.0007 22.9312 10.1354C22.1585 8.27018 20.8501 6.67592 19.1713 5.55426C17.4926 4.4326 15.519 3.83391 13.5 3.83391C11.481 3.83391 9.5074 4.4326 7.82867 5.55426C6.14994 6.67592 4.84151 8.27018 4.06883 10.1354C3.29616 12.0007 3.09394 14.0532 3.48775 16.0334C3.88155 18.0136 4.8537 19.8326 6.28125 21.2603L13.5 28.479L20.7188 21.2603ZM13.5 16.9582C12.7265 16.9582 11.9846 16.6509 11.4376 16.1039C10.8906 15.5569 10.5833 14.8151 10.5833 14.0415C10.5833 13.268 10.8906 12.5261 11.4376 11.9791C11.9846 11.4321 12.7265 11.1248 13.5 11.1248C14.2736 11.1248 15.0154 11.4321 15.5624 11.9791C16.1094 12.5261 16.4167 13.268 16.4167 14.0415C16.4167 14.8151 16.1094 15.5569 15.5624 16.1039C15.0154 16.6509 14.2736 16.9582 13.5 16.9582Z" fill="white"/>
</svg>
