<svg width="23" height="20" viewBox="0 0 23 20" fill="none" xmlns="http://www.w3.org/2000/svg">
<path fill-rule="evenodd" clip-rule="evenodd" d="M17.5 4.00001C16.9317 4.00001 17.7801 4.00001 17 4.00001C16 2 14 0 10.5 0C7 0 4.56176 2.12215 4 5.50001C1.78249 5.50001 0 7.74206 0 10C0.5 12.5 1 13.5 3.52173 14H17.6495C20.324 14 22.5 11.7835 22.5 9.05945C22.5 6.3354 20.1744 4.00001 17.5 4.00001ZM21.0998 8.86379C21.0998 10.869 19.4815 12.5 17.4916 12.5H4.33634C2.77226 12.5 1.4998 11.2181 1.4998 9.64235C1.4998 8.06616 2.77226 6.78392 4.33634 6.78392C4.44072 6.78392 4.55466 6.79226 4.69489 6.80934L5.15662 6.86733L5.20284 6.40337C5.48808 3.57156 7.8362 1.43607 10.6648 1.43607C12.979 1.43607 15.0558 2.91494 15.8331 5.11636L15.9801 5.53186L16.3988 5.398C16.7542 5.28519 17.1219 5.22798 17.4916 5.22798C19.4815 5.22798 21.0998 6.85899 21.0998 8.86379Z" fill="white"/>
<path fill-rule="evenodd" clip-rule="evenodd" d="M4.12309 16.0215C4.69553 17.0637 5.26797 18.1053 5.841 19.1476C6.23932 19.8729 7.352 19.2255 6.95308 18.4995C6.38064 17.4573 5.8082 16.4151 5.23517 15.3728C4.83685 14.6475 3.72417 15.2949 4.12309 16.0215" fill="white"/>
<path fill-rule="evenodd" clip-rule="evenodd" d="M8.385 16.0214C8.9574 17.0636 9.5298 18.1052 10.1022 19.1473C10.5011 19.8726 11.6137 19.2252 11.2148 18.4993C10.6424 17.4571 10.07 16.415 9.49701 15.3728C9.09871 14.6475 7.98551 15.2949 8.385 16.0214" fill="white"/>
<path fill-rule="evenodd" clip-rule="evenodd" d="M12.8643 16.0213C13.4372 17.0634 14.0095 18.1048 14.5819 19.1469C14.9801 19.8721 16.0932 19.2247 15.6943 18.4989C15.122 17.4569 14.5491 16.4148 13.9767 15.3728C13.5785 14.6475 12.4654 15.2949 12.8643 16.0213" fill="white"/>
<path fill-rule="evenodd" clip-rule="evenodd" d="M17.1934 16.0213C17.7657 17.0633 18.3386 18.1048 18.911 19.1468C19.3092 19.872 20.4223 19.2247 20.0234 18.4989C19.4505 17.4568 18.8782 16.4148 18.3059 15.3728C17.907 14.6475 16.7945 15.2949 17.1934 16.0213" fill="white"/>
</svg>
