<svg width="25" height="26" viewBox="0 0 25 26" fill="none" xmlns="http://www.w3.org/2000/svg">
<path d="M24.1239 24.7031C24.8077 24.0075 24.8077 22.8922 24.1239 22.1965L18.7478 16.7278C19.9906 14.989 20.7254 12.8505 20.7254 10.5408C20.7254 4.72875 16.0768 0 10.3622 0C4.6486 0 0 4.72875 0 10.5408C0 16.354 4.6486 21.0817 10.3622 21.0817C12.5283 21.0817 14.5401 20.4024 16.2057 19.2422L21.5741 24.7031C22.2746 25.4158 23.4233 25.4158 24.1239 24.7031V24.7031ZM3.03943 10.5408C3.03943 6.43283 6.32487 3.09075 10.3632 3.09075C14.4016 3.09075 17.6871 6.43283 17.6871 10.5408C17.6871 14.6488 14.4016 17.9909 10.3632 17.9909C6.3238 17.9909 3.03943 14.6488 3.03943 10.5408Z" fill="white"/>
</svg>
