<svg width="22" height="22" viewBox="0 0 22 22" fill="none" xmlns="http://www.w3.org/2000/svg">
<path d="M17.0646 10.8158C17.2274 10.8847 17.2274 11.1153 17.0646 11.1842L5.00205 16.2876C4.83055 16.3602 4.66168 16.1796 4.74556 16.0133L6.73684 12.0667L6.8265 11.885C7.10176 11.3271 7.10176 10.6729 6.8265 10.115L6.73684 9.93333L4.74556 5.98669C4.66168 5.82044 4.83055 5.63985 5.00205 5.7124L17.0646 10.8158ZM19.7776 11.9235C20.5994 11.582 20.5994 10.418 19.7776 10.0766L3.23756 3.20369C2.94126 3.08057 2.59989 3.14945 2.37451 3.37783V3.37783C2.1483 3.60705 2.08439 3.95087 2.2131 4.24608L4.80937 10.2007C5.03162 10.7104 5.03162 11.2896 4.80937 11.7993L2.2131 17.7539C2.08439 18.0491 2.1483 18.3929 2.37451 18.6222V18.6222C2.59989 18.8506 2.94126 18.9194 3.23756 18.7963L19.7776 11.9235Z" fill="white"/>
</svg>
